<svg width="78" height="77" xmlns="http://www.w3.org/2000/svg" xmlns:xlink="http://www.w3.org/1999/xlink" overflow="hidden"><defs><clipPath id="clip0"><rect x="985" y="391" width="78" height="77"/></clipPath></defs><g clip-path="url(#clip0)" transform="translate(-985 -391)"><path d="M0 5.25522C-8.23921e-16 2.35284 2.35283 0 5.25519 0L98.2904 0C101.193 0 103.546 2.35284 103.546 5.25522L103.546 5.25522C103.546 8.1576 101.193 10.5104 98.2904 10.5104L5.25519 10.5104C2.35283 10.5104 0 8.1576 0 5.25522Z" fill="#FFFFFF" fill-rule="evenodd" transform="matrix(-0.707107 0.707107 0.707107 0.707107 1057.19 388.997)"/><path d="M0 5.25522C-8.23921e-16 2.35284 2.35283 0 5.25519 0L98.2904 0C101.193 0 103.546 2.35284 103.546 5.25522L103.546 5.25522C103.546 8.1576 101.193 10.5104 98.2904 10.5104L5.25519 10.5104C2.35283 10.5104 0 8.1576 0 5.25522Z" fill="#FFFFFF" fill-rule="evenodd" transform="matrix(-0.707107 -0.707107 -0.707107 0.707107 1064.63 462.215)"/></g></svg>